# xmcd
#
# Track frame offsets: 
#        150
#        12139
#        23460
#        33880
#        43508
#        51428
#        61875
#        73126
#        79952
#        88225
#        97935
#        109685
#        120617
#        130388
#        139352
#        150795
#        159517
#        170163
#        178322
#        193310
#        204939
#        213842
#        223887
#        235092
#        245512
#        253932
#        263269
#        272922
#        283035
#        293060
#        302153
#        312713
#        323195
#        336329
#        345234
#
# Disc length: 4774 seconds
#
# Revision: 3
# Processed by: cddbd v1.5.2PL0 Copyright (c) Steve Scherf et al.
# Submitted via: ExactAudioCopy v1.0b3
#
DISCID=0c12a423
DTITLE=Various Artist - Sun Rockabilly Meltdown [Disc 3]
DYEAR=2009
DGENRE=Rockabilly
TTITLE0=Presley, Elvis - Milkcow Blues Boogie
TTITLE1=Lewis, Jerry Lee - Cool, Cool Ways (Sexy Ways)
TTITLE2=Williams, Jimmy - Fire Engine Red
TTITLE3=Rich, Charlie - Lonely Weekends
TTITLE4=Blake, Tommy - I Dig You, Baby
TTITLE5=Bruce, Edwin - Rock Boppin' Baby
TTITLE6=Gleaves, Cliff - Your Cheatin' Heart
TTITLE7=Powers, Johnny - Waitin' For You
TTITLE8=Pendarvis, Tracy - Hypnotized
TTITLE9=Watson, Sid - Don't You Worry
TTITLE10=Hoback, Curtis - Apron Strings
TTITLE11=Perkins, Carl - Dixie Fried
TTITLE12=Smith, Ray - Willing And Ready
TTITLE13=Turner, Jesse Lee - Put Me Down
TTITLE14=Barton, Ernie - She's Gone Away
TTITLE15=Bond, Eddie - This Old Heart Of Mine
TTITLE16=Yelvington, Malcolm - Rockin' With My Baby
TTITLE17=Thompson, Hayden - Mama, Mama, Mama
TTITLE18=Lewis, Jerry Lee - Whole Lotta Twistin' Goin' On
TTITLE19=Wages, Jimmy - Miss Pearl
TTITLE20=Cook, Ken - Problem Child
TTITLE21=Mann, Carl - I Love You, I Adore You
TTITLE22=Presley, Elvis - I Don't Care If The Sun Don't Shine
TTITLE23=Harris, Ray - Come On Little Baby
TTITLE24=Burgess, Sonny - Truckin' Down The Avenue
TTITLE25=Perkins, Carl - Caldonia
TTITLE26=Smith, Ray - I Want To Be Free
TTITLE27=Riley, Billy Lee - (Come Back Baby) One More Time
TTITLE28=Feathers, Charlie - Corrine, Corrina
TTITLE29=Wheeler, Onie - That's All
TTITLE30=Penner, Dick - Cindy Lou
TTITLE31=Simmons, Gene - I Done Told You
TTITLE32=McVoy, Carl - A Woman's Love (The Thrill Of Your Love)
TTITLE33=Lewis, Jerry Lee - Ooby Dooby
TTITLE34=Orbison, Roy - It's Too Late
EXTD=
EXTT0=
EXTT1=
EXTT2=
EXTT3=
EXTT4=
EXTT5=
EXTT6=
EXTT7=
EXTT8=
EXTT9=
EXTT10=
EXTT11=
EXTT12=
EXTT13=
EXTT14=
EXTT15=
EXTT16=
EXTT17=
EXTT18=
EXTT19=
EXTT20=
EXTT21=
EXTT22=
EXTT23=
EXTT24=
EXTT25=
EXTT26=
EXTT27=
EXTT28=
EXTT29=
EXTT30=
EXTT31=
EXTT32=
EXTT33=
EXTT34=
PLAYORDER=
